<svg width="120" height="29" viewBox="0 0 120 29" fill="none" xmlns="http://www.w3.org/2000/svg">
<path d="M47.2422 20V19.3672H45.3672V13.5781H46.8672L50.4297 20.0234L54.3672 20C54.3672 19.6562 54.2656 19.4609 54.0625 19.4141C53.9688 19.3984 53.875 19.3906 53.7812 19.3906H53.2891L49.6094 13.3203C51.2031 12.8984 52.2188 12.0547 52.6562 10.7891C52.7812 10.3984 52.8438 10.0078 52.8438 9.61719C52.8438 8.44531 52.3281 7.50781 51.2969 6.80469C50.4375 6.22656 49.3906 5.9375 48.1562 5.9375H40.6094V6.57031H42.4844V19.3672H40.6094V20H47.2422ZM46.9844 6.57031C48.25 6.57031 49.1016 7.15625 49.5391 8.32812C49.6953 8.75 49.7734 9.20312 49.7734 9.6875C49.7734 10.9375 49.375 11.8516 48.5781 12.4297C48.1562 12.7266 47.6719 12.875 47.125 12.875H45.3672V6.57031H46.9844ZM59.7812 19.3906H59.0078V13.9531C59.0078 12.5625 59.4531 11.6094 60.3438 11.0938C60.6562 10.9219 60.9688 10.8359 61.2812 10.8359C62.1875 10.8359 62.7656 11.3203 63.0156 12.2891C63.0781 12.5547 63.1094 12.8516 63.1094 13.1797V18.125C63.1094 18.7656 62.9922 19.1484 62.7578 19.2734C62.5859 19.3516 62.3203 19.3906 61.9609 19.3906V20H67.1641C67.1641 19.6562 67.0625 19.4609 66.8594 19.4141C66.7656 19.3984 66.6719 19.3906 66.5781 19.3906H65.6875V13.4609C65.6875 11.6016 65.0547 10.4062 63.7891 9.875C63.3984 9.71875 62.9766 9.64062 62.5234 9.64062C61.2578 9.64062 60.25 10.1094 59.5 11.0469C59.2969 11.3281 59.1328 11.6172 59.0078 11.9141V4.76562H54.9297V5.375H56.4297V18.125C56.4297 18.8281 56.1562 19.2344 55.6094 19.3438C55.4219 19.375 55.1953 19.3906 54.9297 19.3906V20H60.3672C60.3672 19.6562 60.2656 19.4609 60.0625 19.4141C59.9688 19.3984 59.875 19.3906 59.7812 19.3906ZM70.4453 23.75C70.1797 23.75 69.9688 23.5469 69.8125 23.1406C69.6094 22.6094 69.4219 22.2812 69.25 22.1562C69.0781 22.0312 68.8672 21.9688 68.6172 21.9688C68.0859 21.9688 67.75 22.1953 67.6094 22.6484C67.5781 22.7578 67.5625 22.8594 67.5625 22.9531C67.5625 23.5 67.8906 23.9297 68.5469 24.2422C68.9531 24.4297 69.3984 24.5234 69.8828 24.5234C71.1641 24.5234 72.25 23.7656 73.1406 22.25C73.4844 21.6875 73.8125 21.0078 74.125 20.2109L77.6172 11.2812C77.7891 10.8594 77.9844 10.625 78.2031 10.5781C78.2656 10.5625 78.3359 10.5547 78.4141 10.5547C78.7422 10.5547 78.9297 10.4531 78.9766 10.25C78.9922 10.1719 79 10.0781 79 9.96875H75.3906V10.5547H77.1484L74.4297 17.3984L71.5 10.5547H72.9766V9.96875H67.75V10.5547H68.8047L73.2578 20.3281C72.4609 22.2656 71.6953 23.375 70.9609 23.6562C70.7891 23.7188 70.6172 23.75 70.4453 23.75ZM79.4453 10.6484H81.0625V16.7422C81.2031 19.0078 82.2578 20.1797 84.2266 20.2578C85.4609 20.2578 86.2969 19.7656 86.7344 18.7812C86.8906 18.4375 87.0156 18.0234 87.1094 17.5391L86.4766 17.4453C86.1328 18.8359 85.5781 19.5391 84.8125 19.5547C84.1562 19.5547 83.7734 19.1094 83.6641 18.2188C83.6484 18.0625 83.6406 17.9062 83.6406 17.75V10.6484H86.9219V10.0391H83.6406V7.32031L81.0625 7.8125V10.0391H79.4453V10.6484ZM92.6406 19.3906H91.8672V13.9531C91.8672 12.5625 92.3125 11.6094 93.2031 11.0938C93.5156 10.9219 93.8281 10.8359 94.1406 10.8359C95.0469 10.8359 95.625 11.3203 95.875 12.2891C95.9375 12.5547 95.9688 12.8516 95.9688 13.1797V18.125C95.9688 18.7656 95.8516 19.1484 95.6172 19.2734C95.4453 19.3516 95.1797 19.3906 94.8203 19.3906V20H100.023C100.023 19.6562 99.9219 19.4609 99.7188 19.4141C99.625 19.3984 99.5312 19.3906 99.4375 19.3906H98.5469V13.4609C98.5469 11.6016 97.9141 10.4062 96.6484 9.875C96.2578 9.71875 95.8359 9.64062 95.3828 9.64062C94.1172 9.64062 93.1094 10.1094 92.3594 11.0469C92.1562 11.3281 91.9922 11.6172 91.8672 11.9141V4.76562H87.7891V5.375H89.2891V18.125C89.2891 18.8281 89.0156 19.2344 88.4688 19.3438C88.2812 19.375 88.0547 19.3906 87.7891 19.3906V20H93.2266C93.2266 19.6562 93.125 19.4609 92.9219 19.4141C92.8281 19.3984 92.7344 19.3906 92.6406 19.3906ZM105.719 19.3906H105.086L105.109 13.6016C105.219 12.3203 105.672 11.4531 106.469 11C106.719 10.8594 106.969 10.7891 107.219 10.7891C107.859 10.7891 108.312 11.1719 108.578 11.9375C108.688 12.2812 108.742 12.6719 108.742 13.1094V18.125C108.742 18.7656 108.594 19.1484 108.297 19.2734C108.125 19.3516 107.867 19.3906 107.523 19.3906V20H112.516C112.516 19.6562 112.414 19.4609 112.211 19.4141C112.117 19.3984 112.023 19.3906 111.93 19.3906H111.32V13.4609V13.1562C111.492 12 111.953 11.2422 112.703 10.8828C112.906 10.7891 113.109 10.7422 113.312 10.7422C114.031 10.7422 114.531 11.1406 114.812 11.9375C114.922 12.2969 114.977 12.6875 114.977 13.1094V18.125C114.977 18.7656 114.828 19.1484 114.531 19.2734C114.359 19.3516 114.102 19.3906 113.758 19.3906V20H119.031C119.031 19.6562 118.93 19.4609 118.727 19.4141C118.633 19.3984 118.539 19.3906 118.445 19.3906H117.555V13.3672C117.555 11.8203 117.039 10.7266 116.008 10.0859C115.539 9.78906 115.031 9.64062 114.484 9.64062C113.016 9.64062 111.914 10.3516 111.18 11.7734C111.148 11.8359 111.125 11.8906 111.109 11.9375C110.766 10.7812 110.109 10.0547 109.141 9.75781C108.891 9.67969 108.633 9.64062 108.367 9.64062C106.992 9.64062 105.953 10.25 105.25 11.4688C105.188 11.5938 105.125 11.7188 105.062 11.8438L104.945 9.96875H101.008V10.5547H102.508V18.125C102.508 18.8125 102.25 19.2109 101.734 19.3203C101.531 19.3672 101.289 19.3906 101.008 19.3906V20H106.281C106.281 19.6406 106.164 19.4453 105.93 19.4141C105.867 19.3984 105.797 19.3906 105.719 19.3906Z" fill="#121212"/>
<path fill-rule="evenodd" clip-rule="evenodd" d="M14.1497 15.7262C13.7657 23.0669 7.59189 28.9146 0 29V1C7.59189 1.08547 13.7657 6.9331 14.1497 14.2738C14.5287 7.02987 20.5459 1.2399 28 1.0064V28.9937C20.5459 28.7602 14.5287 22.9702 14.1497 15.7262Z" fill="#FF6428"/>
</svg>
